<?xml version="1.0" standalone="yes"?><svg version="1.1" xmlns="http://www.w3.org/2000/svg" xmlns:xlink="http://www.w3.org/1999/xlink" xmlns:ev="http://www.w3.org/2001/xml-events" width="339" height="339" shape-rendering="crispEdges"><rect width="339" height="339" x="0" y="0" fill="#ffffff"/><rect width="11" height="11" x="10" y="10" fill="#000"/><rect width="11" height="11" x="21" y="10" fill="#000"/><rect width="11" height="11" x="32" y="10" fill="#000"/><rect width="11" height="11" x="43" y="10" fill="#000"/><rect width="11" height="11" x="54" y="10" fill="#000"/><rect width="11" height="11" x="65" y="10" fill="#000"/><rect width="11" height="11" x="76" y="10" fill="#000"/><rect width="11" height="11" x="98" y="10" fill="#000"/><rect width="11" height="11" x="131" y="10" fill="#000"/><rect width="11" height="11" x="142" y="10" fill="#000"/><rect width="11" height="11" x="153" y="10" fill="#000"/><rect width="11" height="11" x="164" y="10" fill="#000"/><rect width="11" height="11" x="197" y="10" fill="#000"/><rect width="11" height="11" x="252" y="10" fill="#000"/><rect width="11" height="11" x="263" y="10" fill="#000"/><rect width="11" height="11" x="274" y="10" fill="#000"/><rect width="11" height="11" x="285" y="10" fill="#000"/><rect width="11" height="11" x="296" y="10" fill="#000"/><rect width="11" height="11" x="307" y="10" fill="#000"/><rect width="11" height="11" x="318" y="10" fill="#000"/><rect width="11" height="11" x="10" y="21" fill="#000"/><rect width="11" height="11" x="76" y="21" fill="#000"/><rect width="11" height="11" x="109" y="21" fill="#000"/><rect width="11" height="11" x="120" y="21" fill="#000"/><rect width="11" height="11" x="186" y="21" fill="#000"/><rect width="11" height="11" x="197" y="21" fill="#000"/><rect width="11" height="11" x="208" y="21" fill="#000"/><rect width="11" height="11" x="219" y="21" fill="#000"/><rect width="11" height="11" x="252" y="21" fill="#000"/><rect width="11" height="11" x="318" y="21" fill="#000"/><rect width="11" height="11" x="10" y="32" fill="#000"/><rect width="11" height="11" x="32" y="32" fill="#000"/><rect width="11" height="11" x="43" y="32" fill="#000"/><rect width="11" height="11" x="54" y="32" fill="#000"/><rect width="11" height="11" x="76" y="32" fill="#000"/><rect width="11" height="11" x="120" y="32" fill="#000"/><rect width="11" height="11" x="142" y="32" fill="#000"/><rect width="11" height="11" x="153" y="32" fill="#000"/><rect width="11" height="11" x="208" y="32" fill="#000"/><rect width="11" height="11" x="230" y="32" fill="#000"/><rect width="11" height="11" x="252" y="32" fill="#000"/><rect width="11" height="11" x="274" y="32" fill="#000"/><rect width="11" height="11" x="285" y="32" fill="#000"/><rect width="11" height="11" x="296" y="32" fill="#000"/><rect width="11" height="11" x="318" y="32" fill="#000"/><rect width="11" height="11" x="10" y="43" fill="#000"/><rect width="11" height="11" x="32" y="43" fill="#000"/><rect width="11" height="11" x="43" y="43" fill="#000"/><rect width="11" height="11" x="54" y="43" fill="#000"/><rect width="11" height="11" x="76" y="43" fill="#000"/><rect width="11" height="11" x="142" y="43" fill="#000"/><rect width="11" height="11" x="153" y="43" fill="#000"/><rect width="11" height="11" x="175" y="43" fill="#000"/><rect width="11" height="11" x="186" y="43" fill="#000"/><rect width="11" height="11" x="197" y="43" fill="#000"/><rect width="11" height="11" x="219" y="43" fill="#000"/><rect width="11" height="11" x="230" y="43" fill="#000"/><rect width="11" height="11" x="252" y="43" fill="#000"/><rect width="11" height="11" x="274" y="43" fill="#000"/><rect width="11" height="11" x="285" y="43" fill="#000"/><rect width="11" height="11" x="296" y="43" fill="#000"/><rect width="11" height="11" x="318" y="43" fill="#000"/><rect width="11" height="11" x="10" y="54" fill="#000"/><rect width="11" height="11" x="32" y="54" fill="#000"/><rect width="11" height="11" x="43" y="54" fill="#000"/><rect width="11" height="11" x="54" y="54" fill="#000"/><rect width="11" height="11" x="76" y="54" fill="#000"/><rect width="11" height="11" x="109" y="54" fill="#000"/><rect width="11" height="11" x="131" y="54" fill="#000"/><rect width="11" height="11" x="164" y="54" fill="#000"/><rect width="11" height="11" x="197" y="54" fill="#000"/><rect width="11" height="11" x="208" y="54" fill="#000"/><rect width="11" height="11" x="219" y="54" fill="#000"/><rect width="11" height="11" x="252" y="54" fill="#000"/><rect width="11" height="11" x="274" y="54" fill="#000"/><rect width="11" height="11" x="285" y="54" fill="#000"/><rect width="11" height="11" x="296" y="54" fill="#000"/><rect width="11" height="11" x="318" y="54" fill="#000"/><rect width="11" height="11" x="10" y="65" fill="#000"/><rect width="11" height="11" x="76" y="65" fill="#000"/><rect width="11" height="11" x="120" y="65" fill="#000"/><rect width="11" height="11" x="142" y="65" fill="#000"/><rect width="11" height="11" x="164" y="65" fill="#000"/><rect width="11" height="11" x="186" y="65" fill="#000"/><rect width="11" height="11" x="252" y="65" fill="#000"/><rect width="11" height="11" x="318" y="65" fill="#000"/><rect width="11" height="11" x="10" y="76" fill="#000"/><rect width="11" height="11" x="21" y="76" fill="#000"/><rect width="11" height="11" x="32" y="76" fill="#000"/><rect width="11" height="11" x="43" y="76" fill="#000"/><rect width="11" height="11" x="54" y="76" fill="#000"/><rect width="11" height="11" x="65" y="76" fill="#000"/><rect width="11" height="11" x="76" y="76" fill="#000"/><rect width="11" height="11" x="98" y="76" fill="#000"/><rect width="11" height="11" x="120" y="76" fill="#000"/><rect width="11" height="11" x="142" y="76" fill="#000"/><rect width="11" height="11" x="164" y="76" fill="#000"/><rect width="11" height="11" x="186" y="76" fill="#000"/><rect width="11" height="11" x="208" y="76" fill="#000"/><rect width="11" height="11" x="230" y="76" fill="#000"/><rect width="11" height="11" x="252" y="76" fill="#000"/><rect width="11" height="11" x="263" y="76" fill="#000"/><rect width="11" height="11" x="274" y="76" fill="#000"/><rect width="11" height="11" x="285" y="76" fill="#000"/><rect width="11" height="11" x="296" y="76" fill="#000"/><rect width="11" height="11" x="307" y="76" fill="#000"/><rect width="11" height="11" x="318" y="76" fill="#000"/><rect width="11" height="11" x="98" y="87" fill="#000"/><rect width="11" height="11" x="120" y="87" fill="#000"/><rect width="11" height="11" x="131" y="87" fill="#000"/><rect width="11" height="11" x="153" y="87" fill="#000"/><rect width="11" height="11" x="175" y="87" fill="#000"/><rect width="11" height="11" x="10" y="98" fill="#000"/><rect width="11" height="11" x="21" y="98" fill="#000"/><rect width="11" height="11" x="43" y="98" fill="#000"/><rect width="11" height="11" x="54" y="98" fill="#000"/><rect width="11" height="11" x="76" y="98" fill="#000"/><rect width="11" height="11" x="109" y="98" fill="#000"/><rect width="11" height="11" x="120" y="98" fill="#000"/><rect width="11" height="11" x="131" y="98" fill="#000"/><rect width="11" height="11" x="142" y="98" fill="#000"/><rect width="11" height="11" x="164" y="98" fill="#000"/><rect width="11" height="11" x="175" y="98" fill="#000"/><rect width="11" height="11" x="197" y="98" fill="#000"/><rect width="11" height="11" x="208" y="98" fill="#000"/><rect width="11" height="11" x="252" y="98" fill="#000"/><rect width="11" height="11" x="318" y="98" fill="#000"/><rect width="11" height="11" x="10" y="109" fill="#000"/><rect width="11" height="11" x="32" y="109" fill="#000"/><rect width="11" height="11" x="43" y="109" fill="#000"/><rect width="11" height="11" x="54" y="109" fill="#000"/><rect width="11" height="11" x="87" y="109" fill="#000"/><rect width="11" height="11" x="98" y="109" fill="#000"/><rect width="11" height="11" x="109" y="109" fill="#000"/><rect width="11" height="11" x="142" y="109" fill="#000"/><rect width="11" height="11" x="164" y="109" fill="#000"/><rect width="11" height="11" x="175" y="109" fill="#000"/><rect width="11" height="11" x="186" y="109" fill="#000"/><rect width="11" height="11" x="197" y="109" fill="#000"/><rect width="11" height="11" x="208" y="109" fill="#000"/><rect width="11" height="11" x="219" y="109" fill="#000"/><rect width="11" height="11" x="230" y="109" fill="#000"/><rect width="11" height="11" x="263" y="109" fill="#000"/><rect width="11" height="11" x="274" y="109" fill="#000"/><rect width="11" height="11" x="296" y="109" fill="#000"/><rect width="11" height="11" x="307" y="109" fill="#000"/><rect width="11" height="11" x="54" y="120" fill="#000"/><rect width="11" height="11" x="76" y="120" fill="#000"/><rect width="11" height="11" x="87" y="120" fill="#000"/><rect width="11" height="11" x="98" y="120" fill="#000"/><rect width="11" height="11" x="120" y="120" fill="#000"/><rect width="11" height="11" x="131" y="120" fill="#000"/><rect width="11" height="11" x="175" y="120" fill="#000"/><rect width="11" height="11" x="186" y="120" fill="#000"/><rect width="11" height="11" x="230" y="120" fill="#000"/><rect width="11" height="11" x="252" y="120" fill="#000"/><rect width="11" height="11" x="263" y="120" fill="#000"/><rect width="11" height="11" x="296" y="120" fill="#000"/><rect width="11" height="11" x="32" y="131" fill="#000"/><rect width="11" height="11" x="43" y="131" fill="#000"/><rect width="11" height="11" x="54" y="131" fill="#000"/><rect width="11" height="11" x="87" y="131" fill="#000"/><rect width="11" height="11" x="98" y="131" fill="#000"/><rect width="11" height="11" x="109" y="131" fill="#000"/><rect width="11" height="11" x="120" y="131" fill="#000"/><rect width="11" height="11" x="164" y="131" fill="#000"/><rect width="11" height="11" x="175" y="131" fill="#000"/><rect width="11" height="11" x="186" y="131" fill="#000"/><rect width="11" height="11" x="197" y="131" fill="#000"/><rect width="11" height="11" x="230" y="131" fill="#000"/><rect width="11" height="11" x="241" y="131" fill="#000"/><rect width="11" height="11" x="285" y="131" fill="#000"/><rect width="11" height="11" x="318" y="131" fill="#000"/><rect width="11" height="11" x="54" y="142" fill="#000"/><rect width="11" height="11" x="65" y="142" fill="#000"/><rect width="11" height="11" x="76" y="142" fill="#000"/><rect width="11" height="11" x="109" y="142" fill="#000"/><rect width="11" height="11" x="131" y="142" fill="#000"/><rect width="11" height="11" x="175" y="142" fill="#000"/><rect width="11" height="11" x="219" y="142" fill="#000"/><rect width="11" height="11" x="252" y="142" fill="#000"/><rect width="11" height="11" x="263" y="142" fill="#000"/><rect width="11" height="11" x="318" y="142" fill="#000"/><rect width="11" height="11" x="32" y="153" fill="#000"/><rect width="11" height="11" x="131" y="153" fill="#000"/><rect width="11" height="11" x="153" y="153" fill="#000"/><rect width="11" height="11" x="164" y="153" fill="#000"/><rect width="11" height="11" x="175" y="153" fill="#000"/><rect width="11" height="11" x="208" y="153" fill="#000"/><rect width="11" height="11" x="241" y="153" fill="#000"/><rect width="11" height="11" x="252" y="153" fill="#000"/><rect width="11" height="11" x="274" y="153" fill="#000"/><rect width="11" height="11" x="285" y="153" fill="#000"/><rect width="11" height="11" x="296" y="153" fill="#000"/><rect width="11" height="11" x="307" y="153" fill="#000"/><rect width="11" height="11" x="318" y="153" fill="#000"/><rect width="11" height="11" x="10" y="164" fill="#000"/><rect width="11" height="11" x="76" y="164" fill="#000"/><rect width="11" height="11" x="98" y="164" fill="#000"/><rect width="11" height="11" x="109" y="164" fill="#000"/><rect width="11" height="11" x="120" y="164" fill="#000"/><rect width="11" height="11" x="153" y="164" fill="#000"/><rect width="11" height="11" x="164" y="164" fill="#000"/><rect width="11" height="11" x="175" y="164" fill="#000"/><rect width="11" height="11" x="186" y="164" fill="#000"/><rect width="11" height="11" x="219" y="164" fill="#000"/><rect width="11" height="11" x="230" y="164" fill="#000"/><rect width="11" height="11" x="241" y="164" fill="#000"/><rect width="11" height="11" x="252" y="164" fill="#000"/><rect width="11" height="11" x="274" y="164" fill="#000"/><rect width="11" height="11" x="296" y="164" fill="#000"/><rect width="11" height="11" x="318" y="164" fill="#000"/><rect width="11" height="11" x="10" y="175" fill="#000"/><rect width="11" height="11" x="21" y="175" fill="#000"/><rect width="11" height="11" x="32" y="175" fill="#000"/><rect width="11" height="11" x="65" y="175" fill="#000"/><rect width="11" height="11" x="98" y="175" fill="#000"/><rect width="11" height="11" x="109" y="175" fill="#000"/><rect width="11" height="11" x="164" y="175" fill="#000"/><rect width="11" height="11" x="186" y="175" fill="#000"/><rect width="11" height="11" x="219" y="175" fill="#000"/><rect width="11" height="11" x="230" y="175" fill="#000"/><rect width="11" height="11" x="252" y="175" fill="#000"/><rect width="11" height="11" x="274" y="175" fill="#000"/><rect width="11" height="11" x="296" y="175" fill="#000"/><rect width="11" height="11" x="318" y="175" fill="#000"/><rect width="11" height="11" x="10" y="186" fill="#000"/><rect width="11" height="11" x="32" y="186" fill="#000"/><rect width="11" height="11" x="43" y="186" fill="#000"/><rect width="11" height="11" x="65" y="186" fill="#000"/><rect width="11" height="11" x="76" y="186" fill="#000"/><rect width="11" height="11" x="98" y="186" fill="#000"/><rect width="11" height="11" x="120" y="186" fill="#000"/><rect width="11" height="11" x="131" y="186" fill="#000"/><rect width="11" height="11" x="142" y="186" fill="#000"/><rect width="11" height="11" x="153" y="186" fill="#000"/><rect width="11" height="11" x="186" y="186" fill="#000"/><rect width="11" height="11" x="285" y="186" fill="#000"/><rect width="11" height="11" x="10" y="197" fill="#000"/><rect width="11" height="11" x="32" y="197" fill="#000"/><rect width="11" height="11" x="43" y="197" fill="#000"/><rect width="11" height="11" x="87" y="197" fill="#000"/><rect width="11" height="11" x="98" y="197" fill="#000"/><rect width="11" height="11" x="175" y="197" fill="#000"/><rect width="11" height="11" x="186" y="197" fill="#000"/><rect width="11" height="11" x="197" y="197" fill="#000"/><rect width="11" height="11" x="219" y="197" fill="#000"/><rect width="11" height="11" x="230" y="197" fill="#000"/><rect width="11" height="11" x="274" y="197" fill="#000"/><rect width="11" height="11" x="296" y="197" fill="#000"/><rect width="11" height="11" x="307" y="197" fill="#000"/><rect width="11" height="11" x="10" y="208" fill="#000"/><rect width="11" height="11" x="21" y="208" fill="#000"/><rect width="11" height="11" x="32" y="208" fill="#000"/><rect width="11" height="11" x="54" y="208" fill="#000"/><rect width="11" height="11" x="76" y="208" fill="#000"/><rect width="11" height="11" x="87" y="208" fill="#000"/><rect width="11" height="11" x="109" y="208" fill="#000"/><rect width="11" height="11" x="131" y="208" fill="#000"/><rect width="11" height="11" x="142" y="208" fill="#000"/><rect width="11" height="11" x="164" y="208" fill="#000"/><rect width="11" height="11" x="175" y="208" fill="#000"/><rect width="11" height="11" x="219" y="208" fill="#000"/><rect width="11" height="11" x="252" y="208" fill="#000"/><rect width="11" height="11" x="263" y="208" fill="#000"/><rect width="11" height="11" x="285" y="208" fill="#000"/><rect width="11" height="11" x="318" y="208" fill="#000"/><rect width="11" height="11" x="10" y="219" fill="#000"/><rect width="11" height="11" x="21" y="219" fill="#000"/><rect width="11" height="11" x="32" y="219" fill="#000"/><rect width="11" height="11" x="43" y="219" fill="#000"/><rect width="11" height="11" x="98" y="219" fill="#000"/><rect width="11" height="11" x="120" y="219" fill="#000"/><rect width="11" height="11" x="131" y="219" fill="#000"/><rect width="11" height="11" x="153" y="219" fill="#000"/><rect width="11" height="11" x="164" y="219" fill="#000"/><rect width="11" height="11" x="175" y="219" fill="#000"/><rect width="11" height="11" x="186" y="219" fill="#000"/><rect width="11" height="11" x="208" y="219" fill="#000"/><rect width="11" height="11" x="219" y="219" fill="#000"/><rect width="11" height="11" x="241" y="219" fill="#000"/><rect width="11" height="11" x="263" y="219" fill="#000"/><rect width="11" height="11" x="274" y="219" fill="#000"/><rect width="11" height="11" x="285" y="219" fill="#000"/><rect width="11" height="11" x="296" y="219" fill="#000"/><rect width="11" height="11" x="10" y="230" fill="#000"/><rect width="11" height="11" x="21" y="230" fill="#000"/><rect width="11" height="11" x="43" y="230" fill="#000"/><rect width="11" height="11" x="54" y="230" fill="#000"/><rect width="11" height="11" x="65" y="230" fill="#000"/><rect width="11" height="11" x="76" y="230" fill="#000"/><rect width="11" height="11" x="87" y="230" fill="#000"/><rect width="11" height="11" x="131" y="230" fill="#000"/><rect width="11" height="11" x="142" y="230" fill="#000"/><rect width="11" height="11" x="164" y="230" fill="#000"/><rect width="11" height="11" x="186" y="230" fill="#000"/><rect width="11" height="11" x="197" y="230" fill="#000"/><rect width="11" height="11" x="219" y="230" fill="#000"/><rect width="11" height="11" x="230" y="230" fill="#000"/><rect width="11" height="11" x="241" y="230" fill="#000"/><rect width="11" height="11" x="252" y="230" fill="#000"/><rect width="11" height="11" x="263" y="230" fill="#000"/><rect width="11" height="11" x="274" y="230" fill="#000"/><rect width="11" height="11" x="285" y="230" fill="#000"/><rect width="11" height="11" x="296" y="230" fill="#000"/><rect width="11" height="11" x="307" y="230" fill="#000"/><rect width="11" height="11" x="98" y="241" fill="#000"/><rect width="11" height="11" x="109" y="241" fill="#000"/><rect width="11" height="11" x="131" y="241" fill="#000"/><rect width="11" height="11" x="164" y="241" fill="#000"/><rect width="11" height="11" x="175" y="241" fill="#000"/><rect width="11" height="11" x="186" y="241" fill="#000"/><rect width="11" height="11" x="208" y="241" fill="#000"/><rect width="11" height="11" x="230" y="241" fill="#000"/><rect width="11" height="11" x="274" y="241" fill="#000"/><rect width="11" height="11" x="285" y="241" fill="#000"/><rect width="11" height="11" x="10" y="252" fill="#000"/><rect width="11" height="11" x="21" y="252" fill="#000"/><rect width="11" height="11" x="32" y="252" fill="#000"/><rect width="11" height="11" x="43" y="252" fill="#000"/><rect width="11" height="11" x="54" y="252" fill="#000"/><rect width="11" height="11" x="65" y="252" fill="#000"/><rect width="11" height="11" x="76" y="252" fill="#000"/><rect width="11" height="11" x="131" y="252" fill="#000"/><rect width="11" height="11" x="164" y="252" fill="#000"/><rect width="11" height="11" x="175" y="252" fill="#000"/><rect width="11" height="11" x="186" y="252" fill="#000"/><rect width="11" height="11" x="197" y="252" fill="#000"/><rect width="11" height="11" x="219" y="252" fill="#000"/><rect width="11" height="11" x="230" y="252" fill="#000"/><rect width="11" height="11" x="252" y="252" fill="#000"/><rect width="11" height="11" x="274" y="252" fill="#000"/><rect width="11" height="11" x="285" y="252" fill="#000"/><rect width="11" height="11" x="10" y="263" fill="#000"/><rect width="11" height="11" x="76" y="263" fill="#000"/><rect width="11" height="11" x="164" y="263" fill="#000"/><rect width="11" height="11" x="175" y="263" fill="#000"/><rect width="11" height="11" x="186" y="263" fill="#000"/><rect width="11" height="11" x="197" y="263" fill="#000"/><rect width="11" height="11" x="219" y="263" fill="#000"/><rect width="11" height="11" x="230" y="263" fill="#000"/><rect width="11" height="11" x="274" y="263" fill="#000"/><rect width="11" height="11" x="318" y="263" fill="#000"/><rect width="11" height="11" x="10" y="274" fill="#000"/><rect width="11" height="11" x="32" y="274" fill="#000"/><rect width="11" height="11" x="43" y="274" fill="#000"/><rect width="11" height="11" x="54" y="274" fill="#000"/><rect width="11" height="11" x="76" y="274" fill="#000"/><rect width="11" height="11" x="98" y="274" fill="#000"/><rect width="11" height="11" x="109" y="274" fill="#000"/><rect width="11" height="11" x="142" y="274" fill="#000"/><rect width="11" height="11" x="175" y="274" fill="#000"/><rect width="11" height="11" x="219" y="274" fill="#000"/><rect width="11" height="11" x="230" y="274" fill="#000"/><rect width="11" height="11" x="241" y="274" fill="#000"/><rect width="11" height="11" x="252" y="274" fill="#000"/><rect width="11" height="11" x="263" y="274" fill="#000"/><rect width="11" height="11" x="274" y="274" fill="#000"/><rect width="11" height="11" x="285" y="274" fill="#000"/><rect width="11" height="11" x="307" y="274" fill="#000"/><rect width="11" height="11" x="318" y="274" fill="#000"/><rect width="11" height="11" x="10" y="285" fill="#000"/><rect width="11" height="11" x="32" y="285" fill="#000"/><rect width="11" height="11" x="43" y="285" fill="#000"/><rect width="11" height="11" x="54" y="285" fill="#000"/><rect width="11" height="11" x="76" y="285" fill="#000"/><rect width="11" height="11" x="98" y="285" fill="#000"/><rect width="11" height="11" x="109" y="285" fill="#000"/><rect width="11" height="11" x="131" y="285" fill="#000"/><rect width="11" height="11" x="142" y="285" fill="#000"/><rect width="11" height="11" x="153" y="285" fill="#000"/><rect width="11" height="11" x="164" y="285" fill="#000"/><rect width="11" height="11" x="175" y="285" fill="#000"/><rect width="11" height="11" x="186" y="285" fill="#000"/><rect width="11" height="11" x="197" y="285" fill="#000"/><rect width="11" height="11" x="208" y="285" fill="#000"/><rect width="11" height="11" x="219" y="285" fill="#000"/><rect width="11" height="11" x="241" y="285" fill="#000"/><rect width="11" height="11" x="307" y="285" fill="#000"/><rect width="11" height="11" x="318" y="285" fill="#000"/><rect width="11" height="11" x="10" y="296" fill="#000"/><rect width="11" height="11" x="32" y="296" fill="#000"/><rect width="11" height="11" x="43" y="296" fill="#000"/><rect width="11" height="11" x="54" y="296" fill="#000"/><rect width="11" height="11" x="76" y="296" fill="#000"/><rect width="11" height="11" x="109" y="296" fill="#000"/><rect width="11" height="11" x="120" y="296" fill="#000"/><rect width="11" height="11" x="175" y="296" fill="#000"/><rect width="11" height="11" x="186" y="296" fill="#000"/><rect width="11" height="11" x="197" y="296" fill="#000"/><rect width="11" height="11" x="241" y="296" fill="#000"/><rect width="11" height="11" x="263" y="296" fill="#000"/><rect width="11" height="11" x="274" y="296" fill="#000"/><rect width="11" height="11" x="296" y="296" fill="#000"/><rect width="11" height="11" x="307" y="296" fill="#000"/><rect width="11" height="11" x="318" y="296" fill="#000"/><rect width="11" height="11" x="10" y="307" fill="#000"/><rect width="11" height="11" x="76" y="307" fill="#000"/><rect width="11" height="11" x="98" y="307" fill="#000"/><rect width="11" height="11" x="109" y="307" fill="#000"/><rect width="11" height="11" x="120" y="307" fill="#000"/><rect width="11" height="11" x="131" y="307" fill="#000"/><rect width="11" height="11" x="142" y="307" fill="#000"/><rect width="11" height="11" x="208" y="307" fill="#000"/><rect width="11" height="11" x="241" y="307" fill="#000"/><rect width="11" height="11" x="263" y="307" fill="#000"/><rect width="11" height="11" x="285" y="307" fill="#000"/><rect width="11" height="11" x="296" y="307" fill="#000"/><rect width="11" height="11" x="318" y="307" fill="#000"/><rect width="11" height="11" x="10" y="318" fill="#000"/><rect width="11" height="11" x="21" y="318" fill="#000"/><rect width="11" height="11" x="32" y="318" fill="#000"/><rect width="11" height="11" x="43" y="318" fill="#000"/><rect width="11" height="11" x="54" y="318" fill="#000"/><rect width="11" height="11" x="65" y="318" fill="#000"/><rect width="11" height="11" x="76" y="318" fill="#000"/><rect width="11" height="11" x="98" y="318" fill="#000"/><rect width="11" height="11" x="109" y="318" fill="#000"/><rect width="11" height="11" x="142" y="318" fill="#000"/><rect width="11" height="11" x="153" y="318" fill="#000"/><rect width="11" height="11" x="175" y="318" fill="#000"/><rect width="11" height="11" x="186" y="318" fill="#000"/><rect width="11" height="11" x="219" y="318" fill="#000"/><rect width="11" height="11" x="230" y="318" fill="#000"/><rect width="11" height="11" x="241" y="318" fill="#000"/><rect width="11" height="11" x="252" y="318" fill="#000"/><rect width="11" height="11" x="263" y="318" fill="#000"/><rect width="11" height="11" x="274" y="318" fill="#000"/></svg>